<?xml version="1.0" standalone="no"?><!DOCTYPE svg PUBLIC "-//W3C//DTD SVG 1.1//EN" "http://www.w3.org/Graphics/SVG/1.1/DTD/svg11.dtd"><svg t="1743979001144" class="icon" viewBox="0 0 1440 1024" version="1.1" xmlns="http://www.w3.org/2000/svg" p-id="47916" xmlns:xlink="http://www.w3.org/1999/xlink" width="1440" height="1024"><path d="M230.412186 193.369182C328.444297 78.227897 470.401477 10.280857 621.359695 1.164605 710.14594-4.207215 817.366311 7.717361 924.586683 64.099867c0 0 61.135054 28.212855 112.736208 122.169296 4.320499 7.877709 8.122537 16.014648 11.852567 24.194792 7.474462 16.417894 41.159949 70.481732 176.693988 128.246797 0 0 143.382944 60.486979 87.18766 191.743725-8.396169 19.615063-20.234335 37.545132-34.419971 53.47337-17.498019 19.67267-50.477824 55.532808-92.761103 96.059083 0 0-63.986583 55.993661-117.315937 221.295934 0 0-47.007024 154.745855-230.023341 116.696665-56.915367-11.838166-109.323014-39.417348-152.556803-78.287433-55.547209-49.944963-144.448667-139.782529-193.327907-241.040612 0 0-39.993415-77.322522-117.315936-58.657968 0 0-258.625041 63.986583-261.289349-167.980983 0 0.014402-2.909136-138.529584 116.365427-278.643351z" fill="#F6F7F9" p-id="47917"></path><path d="M1154.854852 802.717892H278.499334c-14.257645 0-25.922991-11.665346-25.922991-25.922992v-569.585721c0-14.257645 11.665346-25.922991 25.922991-25.922991h876.355518c14.257645 0 25.922991 11.665346 25.922991 25.922991v569.585721c0 14.257645-11.665346 25.922991-25.922991 25.922992z" fill="#FFFFFF" p-id="47918"></path><path d="M1154.854852 807.03839H278.499334c-16.677124 0-30.24349-13.566365-30.243489-30.24349v-569.585721c0-16.677124 13.566365-30.24349 30.243489-30.24349h876.355518c16.677124 0 30.24349 13.566365 30.24349 30.24349v569.585721c0 16.677124-13.566365 30.24349-30.24349 30.24349z m-876.355518-621.431703c-11.910174 0-21.602493 9.692318-21.602492 21.602492v569.585721c0 11.910174 9.692318 21.602493 21.602492 21.602493h876.355518c11.910174 0 21.602493-9.692318 21.602493-21.602493v-569.585721c0-11.910174-9.692318-21.602493-21.602493-21.602492H278.499334z" fill="#323842" p-id="47919"></path><path d="M286.319437 212.667409c0-6.207116 5.02618-11.233296 11.233296-11.233296s11.233296 5.02618 11.233296 11.233296-5.02618 11.233296-11.233296 11.233296-11.233296-5.02618-11.233296-11.233296z" fill="#F82D2D" p-id="47920"></path><path d="M326.442466 212.667409c0-6.207116 5.02618-11.233296 11.233297-11.233296s11.233296 5.02618 11.233296 11.233296-5.02618 11.233296-11.233296 11.233296c-6.192715 0-11.233296-5.02618-11.233297-11.233296z" fill="#F8DD2D" p-id="47921"></path><path d="M366.579898 212.667409c0-6.207116 5.02618-11.233296 11.233296-11.233296s11.233296 5.02618 11.233296 11.233296-5.02618 11.233296-11.233296 11.233296-11.233296-5.02618-11.233296-11.233296z" fill="#18C35D" p-id="47922"></path><path d="M252.576343 242.205217h924.55788" fill="#F6F7F9" p-id="47923"></path><path d="M1177.134223 246.525716H252.576343c-2.390676 0-4.320499-1.929823-4.320498-4.320499s1.929823-4.320499 4.320498-4.320498h924.55788c2.390676 0 4.320499 1.929823 4.320498 4.320498s-1.929823 4.320499-4.320498 4.320499z" fill="#323842" p-id="47924"></path><path d="M658.184744 272.002255l0.100812 0.014402v-0.100812z" fill="#F6F7F9" p-id="47925"></path><path d="M799.450644 355.67591H763.144055c-5.573443 0-10.081163-4.50772-10.081163-10.081163s4.50772-10.081163 10.081163-10.081164h36.306589c5.573443 0 10.081163 4.50772 10.081163 10.081164s-4.50772 10.081163-10.081163 10.081163z" fill="#D7DFEA" p-id="47926"></path><path d="M926.617317 355.67591h-78.186621c-5.573443 0-10.081163-4.50772-10.081164-10.081163s4.50772-10.081163 10.081164-10.081164h78.186621c5.573443 0 10.081163 4.50772 10.081163 10.081164s-4.522122 10.081163-10.081163 10.081163z" fill="#DFE8F2" p-id="47927"></path><path d="M1011.875155 355.67591H975.568565c-5.573443 0-10.081163-4.50772-10.081163-10.081163s4.50772-10.081163 10.081163-10.081164h36.30659c5.573443 0 10.081163 4.50772 10.081163 10.081164s-4.50772 10.081163-10.081163 10.081163z" fill="#D7DFEA" p-id="47928"></path><path d="M1137.67367 355.67591h-76.818464c-5.573443 0-10.081163-4.50772-10.081163-10.081163s4.50772-10.081163 10.081163-10.081164h76.818464c5.573443 0 10.081163 4.50772 10.081163 10.081164s-4.522122 10.081163-10.081163 10.081163z" fill="#DFE8F2" p-id="47929"></path><path d="M799.450644 404.64156H763.144055c-5.573443 0-10.081163-4.50772-10.081163-10.081163s4.50772-10.081163 10.081163-10.081164h36.306589c5.573443 0 10.081163 4.50772 10.081163 10.081164s-4.50772 10.081163-10.081163 10.081163z" fill="#D7DFEA" p-id="47930"></path><path d="M926.617317 404.64156h-78.186621c-5.573443 0-10.081163-4.50772-10.081164-10.081163s4.50772-10.081163 10.081164-10.081164h78.186621c5.573443 0 10.081163 4.50772 10.081163 10.081164s-4.522122 10.081163-10.081163 10.081163z" fill="#DFE8F2" p-id="47931"></path><path d="M1011.875155 404.64156H975.568565c-5.573443 0-10.081163-4.50772-10.081163-10.081163s4.50772-10.081163 10.081163-10.081164h36.30659c5.573443 0 10.081163 4.50772 10.081163 10.081164s-4.50772 10.081163-10.081163 10.081163z" fill="#D7DFEA" p-id="47932"></path><path d="M1137.67367 404.64156h-76.818464c-5.573443 0-10.081163-4.50772-10.081163-10.081163s4.50772-10.081163 10.081163-10.081164h76.818464c5.573443 0 10.081163 4.50772 10.081163 10.081164s-4.522122 10.081163-10.081163 10.081163zM926.617317 453.60721h-163.45886c-5.573443 0-10.081163-4.50772-10.081164-10.081164s4.50772-10.081163 10.081164-10.081163h163.45886c5.573443 0 10.081163 4.50772 10.081163 10.081163s-4.522122 10.081163-10.081163 10.081164zM1137.67367 453.60721H975.582967c-5.573443 0-10.081163-4.50772-10.081163-10.081164s4.50772-10.081163 10.081163-10.081163h162.090703c5.573443 0 10.081163 4.50772 10.081163 10.081163s-4.522122 10.081163-10.081163 10.081164z" fill="#DFE8F2" p-id="47933"></path><path d="M1141.994168 306.71026H291.316813c-3.182767 0-5.760665-2.577897-5.760664-5.760665v-19.960703c0-3.182767 2.577897-5.760665 5.760664-5.760665h850.662954c3.182767 0 5.760665 2.577897 5.760664 5.760665v19.960703c0.014402 3.182767-2.563496 5.760665-5.746263 5.760665z" fill="#F6F7F9" p-id="47934"></path><path d="M486.099288 298.170075H321.560303c-3.974859 0-7.200831-3.225972-7.200831-7.200831s3.225972-7.200831 7.200831-7.200831h164.524584c3.974859 0 7.200831 3.225972 7.20083 7.200831 0.014402 3.974859-3.211571 7.200831-7.186429 7.200831z" fill="#D7DFEA" p-id="47935"></path><path d="M642.918983 362.545502c-32.446944 0-58.989206 26.542263-58.989207 58.989207s26.542263 58.989206 58.989207 58.989206 58.989206-26.542263 58.989206-58.989206h-58.989206v-58.989207z m0 0" fill="#6AA7DE" p-id="47936"></path><path d="M642.918983 421.491504h58.946001c0 32.331731-26.614271 58.946001-58.946001 58.946001s-58.946001-26.614271-58.946002-58.946001c0-32.216517 26.412648-58.75878 58.614764-58.946002l0.331238 58.946002z" fill="#B7E0FF" p-id="47937"></path><path d="M650.465454 412.303244l-0.244829-58.946002h0.244829c32.331731 0 58.946001 26.614271 58.946001 58.946002h-58.946001z" fill="#2296FF" p-id="47938"></path><path d="M536.404293 498.367574H289.905451c-2.390676 0-4.320499-1.929823-4.320499-4.320498s1.929823-4.320499 4.320499-4.320499h246.498842c2.390676 0 4.320499 1.929823 4.320498 4.320499s-1.944224 4.320499-4.320498 4.320498zM317.556641 482.252115c-4.07567 0-7.373651-3.297981-7.373651-7.373651v-87.749325c0-4.07567 3.297981-7.373651 7.373651-7.373651s7.373651 3.297981 7.373651 7.373651v87.749325c0 4.061269-3.297981 7.373651-7.373651 7.373651z" fill="#DCE4EF" p-id="47939"></path><path d="M355.793053 482.252115c-4.07567 0-7.373651-3.297981-7.373651-7.373651v-131.99123c0-4.07567 3.297981-7.373651 7.373651-7.373651s7.373651 3.297981 7.373651 7.373651v131.99123c0 4.061269-3.297981 7.373651-7.373651 7.373651z" fill="#2296FF" p-id="47940"></path><path d="M394.029465 482.252115c-4.07567 0-7.373651-3.297981-7.373651-7.373651v-72.944417c0-4.07567 3.297981-7.373651 7.373651-7.37365s7.373651 3.297981 7.373651 7.37365v72.944417c0 4.061269-3.297981 7.373651-7.373651 7.373651zM470.502289 482.252115c-4.07567 0-7.373651-3.297981-7.373651-7.373651v-72.944417c0-4.07567 3.297981-7.373651 7.373651-7.37365s7.373651 3.297981 7.37365 7.37365v72.944417c0 4.061269-3.297981 7.373651-7.37365 7.373651zM508.7387 482.252115c-4.07567 0-7.373651-3.297981-7.37365-7.373651v-57.952287c0-4.07567 3.297981-7.373651 7.37365-7.373651s7.373651 3.297981 7.373651 7.373651v57.952287c0 4.061269-3.297981 7.373651-7.373651 7.373651zM432.265877 482.252115c-4.07567 0-7.373651-3.297981-7.373651-7.373651v-102.496627c0-4.07567 3.297981-7.373651 7.373651-7.37365s7.373651 3.297981 7.373651 7.37365v102.496627c0 4.061269-3.297981 7.373651-7.373651 7.373651z" fill="#B7E0FF" p-id="47941"></path><path d="M696.392353 769.33484H299.496957c-7.416856 0-13.479955-6.0631-13.479955-13.479956V555.138925c0-7.416856 6.0631-13.479955 13.479955-13.479956h396.895396c7.416856 0 13.479955 6.0631 13.479955 13.479956v200.715959c0 7.416856-6.0631 13.479955-13.479955 13.479956z" fill="#F6F7F9" p-id="47942"></path><path d="M537.023564 700.336478h-78.143416c-3.168366 0-5.760665-2.592299-5.760665-5.760664v-78.143417c0-3.168366 2.592299-5.760665 5.760665-5.760665h78.143416c3.168366 0 5.760665 2.592299 5.760665 5.760665v78.143417c0 3.168366-2.592299 5.760665-5.760665 5.760664z" fill="#B7E0FF" p-id="47943"></path><path d="M513.390437 653.502274l-28.572897-16.504304c-1.540978-0.892903-3.456399 0.216025-3.456398 2.001831v32.994207c0 1.771404 1.929823 2.894734 3.456398 2.001831l28.572897-16.504304c1.540978-0.878501 1.540978-3.096357 0-3.989261z" fill="#FFFFFF" p-id="47944"></path><path d="M1133.050736 769.392446H769.16395c-8.079332 0-14.64649-6.552756-14.64649-14.64649V511.458685c0-8.079332 6.552756-14.64649 14.64649-14.64649h363.886786c8.079332 0 14.64649 6.552756 14.64649 14.64649v243.301673c-0.014402 8.079332-6.567158 14.632088-14.64649 14.632088z" fill="#D7DFEA" p-id="47945"></path><path d="M1310.983267 679.223642h-466.61384c-7.949717 0-14.401662-6.451944-14.401662-14.401662V418.625573c0-7.949717 6.451944-14.401662 14.401662-14.401661h466.61384c7.949717 0 14.401662 6.451944 14.401662 14.401661v246.196407c0 7.949717-6.451944 14.401662-14.401662 14.401662z" fill="#FFFFFF" p-id="47946"></path><path d="M1310.983267 683.544141h-466.61384c-10.325991 0-18.72216-8.396169-18.72216-18.722161V418.625573c0-10.325991 8.396169-18.72216 18.72216-18.72216h466.61384c10.325991 0 18.72216 8.396169 18.72216 18.72216v246.196407c0 10.325991-8.396169 18.72216-18.72216 18.722161z m-466.61384-274.999731c-5.559041 0-10.081163 4.522122-10.081163 10.081163v246.196407c0 5.559041 4.522122 10.081163 10.081163 10.081164h466.61384c5.559041 0 10.081163-4.522122 10.081163-10.081164V418.625573c0-5.559041-4.522122-10.081163-10.081163-10.081163h-466.61384z" fill="#323842" p-id="47947"></path><path d="M960.518829 443.439636l1.713798 29.537809c-37.314706 2.160249-67.16935 32.000492-69.444813 69.214386l-0.057607 1.123329-29.55221-1.353756c2.419479-52.35004 43.709043-94.604516 95.771051-98.420956l1.569781-0.100812z m0 0" fill="#DFE8F2" p-id="47948"></path><path d="M892.643797 546.800363c0 40.843113 33.10942 73.952533 73.952533 73.952533 10.31159 0 20.291941-2.102643 29.509005-6.120707l1.526576-0.691279 12.428634 26.844697a103.228231 103.228231 0 0 1-43.478617 9.548302c-56.612932 0-102.597438-45.422841-103.519144-101.819749l-0.014402-1.713797h29.595415z m0 0" fill="#B7E0FF" p-id="47949"></path><path d="M966.59633 437.347733c60.443774 0 109.452629 48.994453 109.452629 109.45263a109.405104 109.405104 0 0 1-57.477032 96.332715l-1.224141 0.662476-19.226218-36.681032a68.019048 68.019048 0 0 0 36.508212-60.314159c0-37.199492-29.854645-67.42858-66.91012-68.03345l-1.12333-0.014402v-41.404778z m0 0" fill="#2296FF" p-id="47950"></path><path d="M1115.120668 505.021142c-5.573443 0-10.081163-4.50772-10.081164-10.081163s4.50772-10.081163 10.081164-10.081163 10.081163 4.50772 10.081163 10.081163-4.50772 10.081163-10.081163 10.081163z" fill="#2296FF" p-id="47951"></path><path d="M1282.179944 505.021142h-118.093627c-5.573443 0-10.081163-4.50772-10.081163-10.081163s4.50772-10.081163 10.081163-10.081163h118.093627c5.573443 0 10.081163 4.50772 10.081163 10.081163s-4.50772 10.081163-10.081163 10.081163z" fill="#DCE4EF" p-id="47952"></path><path d="M1115.120668 553.986792c-5.573443 0-10.081163-4.50772-10.081164-10.081163s4.50772-10.081163 10.081164-10.081164 10.081163 4.50772 10.081163 10.081164-4.50772 10.081163-10.081163 10.081163z" fill="#B7E0FF" p-id="47953"></path><path d="M1282.179944 553.986792h-118.093627c-5.573443 0-10.081163-4.50772-10.081163-10.081163s4.50772-10.081163 10.081163-10.081164h118.093627c5.573443 0 10.081163 4.50772 10.081163 10.081164s-4.50772 10.081163-10.081163 10.081163z" fill="#DCE4EF" p-id="47954"></path><path d="M1115.120668 602.952442c-5.573443 0-10.081163-4.50772-10.081164-10.081164s4.50772-10.081163 10.081164-10.081163 10.081163 4.50772 10.081163 10.081163-4.50772 10.081163-10.081163 10.081164z" fill="#DFE8F2" p-id="47955"></path><path d="M1282.179944 602.952442h-118.093627c-5.573443 0-10.081163-4.50772-10.081163-10.081164s4.50772-10.081163 10.081163-10.081163h118.093627c5.573443 0 10.081163 4.50772 10.081163 10.081163s-4.50772 10.081163-10.081163 10.081164z" fill="#DCE4EF" p-id="47956"></path><path d="M196.323453 639.331039c-2.390676 0-4.320499-1.929823-4.320499-4.320498v-1.440166c0-2.390676 1.929823-4.320499 4.320499-4.320499s4.320499 1.929823 4.320498 4.320499v1.440166c0 2.376274-1.944224 4.320499-4.320498 4.320498z m0-44.645151c-2.390676 0-4.320499-1.929823-4.320499-4.320499v-1.440166c0-2.390676 1.929823-4.320499 4.320499-4.320498s4.320499 1.929823 4.320498 4.320498v1.440166c0 2.376274-1.944224 4.320499-4.320498 4.320499z m0-44.645151c-2.390676 0-4.320499-1.929823-4.320499-4.320499v-1.440166c0-2.390676 1.929823-4.320499 4.320499-4.320499s4.320499 1.929823 4.320498 4.320499v1.440166c0 2.376274-1.944224 4.320499-4.320498 4.320499z m0-44.645152c-2.390676 0-4.320499-1.929823-4.320499-4.320498v-1.440167c0-2.390676 1.929823-4.320499 4.320499-4.320498s4.320499 1.929823 4.320498 4.320498v1.440167c0 2.376274-1.944224 4.320499-4.320498 4.320498z m0-44.645151c-2.390676 0-4.320499-1.929823-4.320499-4.320499v-1.440166c0-2.390676 1.929823-4.320499 4.320499-4.320498s4.320499 1.929823 4.320498 4.320498v1.440166c0 2.376274-1.944224 4.320499-4.320498 4.320499z m0-44.645152c-2.390676 0-4.320499-1.929823-4.320499-4.320498v-1.440166c0-2.390676 1.929823-4.320499 4.320499-4.320499s4.320499 1.929823 4.320498 4.320499v1.440166c0 2.376274-1.944224 4.320499-4.320498 4.320498z m0-44.645151c-2.390676 0-4.320499-1.929823-4.320499-4.320498v-1.440167c0-2.390676 1.929823-4.320499 4.320499-4.320498s4.320499 1.929823 4.320498 4.320498v1.440167c0 2.376274-1.944224 4.320499-4.320498 4.320498z m0-44.645151c-2.390676 0-4.320499-1.929823-4.320499-4.320499v-1.440166c0-2.390676 1.929823-4.320499 4.320499-4.320498s4.320499 1.929823 4.320498 4.320498v1.440166c0 2.376274-1.944224 4.320499-4.320498 4.320499z m0-44.645152c-2.390676 0-4.320499-1.929823-4.320499-4.320498v-1.440166c0-2.390676 1.929823-4.320499 4.320499-4.320499s4.320499 1.929823 4.320498 4.320499v1.440166c0 2.376274-1.944224 4.320499-4.320498 4.320498z m0-44.645151c-2.390676 0-4.320499-1.929823-4.320499-4.320498v-1.440167c0-2.390676 1.929823-4.320499 4.320499-4.320498s4.320499 1.929823 4.320498 4.320498v1.440167c0 2.376274-1.944224 4.320499-4.320498 4.320498z m0-44.645151c-2.390676 0-4.320499-1.929823-4.320499-4.320499v-1.440166c0-2.390676 1.929823-4.320499 4.320499-4.320499s4.320499 1.929823 4.320498 4.320499v1.440166c0 2.376274-1.944224 4.320499-4.320498 4.320499z m3.830842-44.1987c-0.489656 0-0.993715-0.08641-1.483371-0.25923a4.311858 4.311858 0 0 1-2.563496-5.54464c0.17282-0.489656 0.360042-0.964911 0.547263-1.454568a4.319058 4.319058 0 1 1 8.036127 3.168366l-0.475255 1.252944a4.33058 4.33058 0 0 1-4.061268 2.837128z m28.400077-33.239035c-1.512174 0-2.981144-0.792091-3.773236-2.217856a4.320499 4.320499 0 0 1 1.656191-5.875878c0.446452-0.244828 0.892903-0.489656 1.353757-0.734485a4.320499 4.320499 0 0 1 5.832673 1.800208 4.320499 4.320499 0 0 1-1.800208 5.832673c-0.388845 0.201623-0.77769 0.417648-1.166535 0.633673-0.676878 0.388845-1.396961 0.561665-2.102642 0.561665z m892.960633-7.964119h-1.440166c-2.390676 0-4.320499-1.929823-4.320498-4.320499s1.929823-4.320499 4.320498-4.320498h1.440166c2.390676 0 4.320499 1.929823 4.320499 4.320498s-1.944224 4.320499-4.320499 4.320499z m-44.645151 0h-1.440166c-2.390676 0-4.320499-1.929823-4.320499-4.320499s1.929823-4.320499 4.320499-4.320498h1.440166c2.390676 0 4.320499 1.929823 4.320498 4.320498s-1.944224 4.320499-4.320498 4.320499z m-44.645151 0h-1.440167c-2.390676 0-4.320499-1.929823-4.320498-4.320499s1.929823-4.320499 4.320498-4.320498h1.440167c2.390676 0 4.320499 1.929823 4.320498 4.320498s-1.944224 4.320499-4.320498 4.320499z m-44.645152 0h-1.440166c-2.390676 0-4.320499-1.929823-4.320498-4.320499s1.929823-4.320499 4.320498-4.320498h1.440166c2.390676 0 4.320499 1.929823 4.320499 4.320498s-1.944224 4.320499-4.320499 4.320499z m-44.645151 0h-1.440166c-2.390676 0-4.320499-1.929823-4.320499-4.320499s1.929823-4.320499 4.320499-4.320498h1.440166c2.390676 0 4.320499 1.929823 4.320498 4.320498s-1.944224 4.320499-4.320498 4.320499z m-44.645151 0h-1.440167c-2.390676 0-4.320499-1.929823-4.320498-4.320499s1.929823-4.320499 4.320498-4.320498h1.440167c2.390676 0 4.320499 1.929823 4.320498 4.320498s-1.944224 4.320499-4.320498 4.320499z m-44.645152 0h-1.440166c-2.390676 0-4.320499-1.929823-4.320499-4.320499s1.929823-4.320499 4.320499-4.320498h1.440166c2.390676 0 4.320499 1.929823 4.320499 4.320498s-1.944224 4.320499-4.320499 4.320499z m-44.645151 0h-1.440166c-2.390676 0-4.320499-1.929823-4.320499-4.320499s1.929823-4.320499 4.320499-4.320498h1.440166c2.390676 0 4.320499 1.929823 4.320498 4.320498s-1.944224 4.320499-4.320498 4.320499z m-44.645152 0h-1.440166c-2.390676 0-4.320499-1.929823-4.320498-4.320499s1.929823-4.320499 4.320498-4.320498h1.440166c2.390676 0 4.320499 1.929823 4.320499 4.320498s-1.944224 4.320499-4.320499 4.320499z m-44.645151 0h-1.440166c-2.390676 0-4.320499-1.929823-4.320499-4.320499s1.929823-4.320499 4.320499-4.320498h1.440166c2.390676 0 4.320499 1.929823 4.320499 4.320498s-1.944224 4.320499-4.320499 4.320499z m-44.645151 0h-1.440166c-2.390676 0-4.320499-1.929823-4.320499-4.320499s1.929823-4.320499 4.320499-4.320498h1.440166c2.390676 0 4.320499 1.929823 4.320498 4.320498s-1.944224 4.320499-4.320498 4.320499z m-44.645152 0h-1.440166c-2.390676 0-4.320499-1.929823-4.320498-4.320499s1.929823-4.320499 4.320498-4.320498h1.440166c2.390676 0 4.320499 1.929823 4.320499 4.320498s-1.944224 4.320499-4.320499 4.320499z m-44.645151 0h-1.440166c-2.390676 0-4.320499-1.929823-4.320499-4.320499s1.929823-4.320499 4.320499-4.320498h1.440166c2.390676 0 4.320499 1.929823 4.320499 4.320498s-1.944224 4.320499-4.320499 4.320499z m-44.645151 0h-1.440166c-2.390676 0-4.320499-1.929823-4.320499-4.320499s1.929823-4.320499 4.320499-4.320498h1.440166c2.390676 0 4.320499 1.929823 4.320498 4.320498s-1.944224 4.320499-4.320498 4.320499z m-44.645152 0h-1.440166c-2.390676 0-4.320499-1.929823-4.320498-4.320499s1.929823-4.320499 4.320498-4.320498h1.440166c2.390676 0 4.320499 1.929823 4.320499 4.320498s-1.944224 4.320499-4.320499 4.320499z m-44.645151 0h-1.440166c-2.390676 0-4.320499-1.929823-4.320499-4.320499s1.929823-4.320499 4.320499-4.320498h1.440166c2.390676 0 4.320499 1.929823 4.320499 4.320498s-1.944224 4.320499-4.320499 4.320499z m-44.645151 0h-1.440167c-2.390676 0-4.320499-1.929823-4.320498-4.320499s1.929823-4.320499 4.320498-4.320498h1.440167c2.390676 0 4.320499 1.929823 4.320498 4.320498s-1.944224 4.320499-4.320498 4.320499z m-44.645152 0h-1.440166c-2.390676 0-4.320499-1.929823-4.320498-4.320499s1.929823-4.320499 4.320498-4.320498h1.440166c2.390676 0 4.320499 1.929823 4.320499 4.320498s-1.944224 4.320499-4.320499 4.320499z m-44.645151 0h-1.440166c-2.390676 0-4.320499-1.929823-4.320499-4.320499s1.929823-4.320499 4.320499-4.320498h1.440166c2.390676 0 4.320499 1.929823 4.320498 4.320498s-1.944224 4.320499-4.320498 4.320499z m-44.645151 0h-1.440167c-2.390676 0-4.320499-1.929823-4.320498-4.320499s1.929823-4.320499 4.320498-4.320498h1.440167c2.390676 0 4.320499 1.929823 4.320498 4.320498s-1.944224 4.320499-4.320498 4.320499z" fill="#B7E0FF" p-id="47957"></path><path d="M1162.862176 314.789592l7.748094-0.302435 7.445659-0.705681 7.344848-1.310551 7.143224-1.713798 7.042413-2.117044 6.739977-2.621103 6.538355-3.024349 6.336731-3.528407 6.135108-3.830842 5.731861-4.133277 5.530238-4.522122 5.227803-4.925368 4.925369-5.227803 4.522121-5.530238 4.133277-5.731862 3.830842-6.135107 3.528408-6.336732 3.024348-6.538354 2.621103-6.739978 2.117044-7.042412 1.713798-7.143225 1.310551-7.344847 0.705682-7.445659 0.302434-7.748094-0.302434-7.748094-0.705682-7.445659-1.310551-7.344848-1.713798-7.143224-2.117044-7.042413-2.621103-6.739977-3.024348-6.538355-3.528408-6.336731-3.830842-6.135108-4.133277-5.731861-4.522121-5.530238-4.925369-5.227803-5.227803-4.925369-5.530238-4.522121-5.731861-4.133277-6.135108-3.830842-6.336731-3.528408-6.538355-3.024349-6.739977-2.621102-7.042413-2.117044-7.143224-1.713798-7.344848-1.310551-7.445659-0.705682-7.748094-0.302435-7.748094 0.302435-7.445659 0.705682-7.344847 1.310551-7.143225 1.713798-7.042412 2.117044-6.739978 2.577898-6.538354 3.024348-6.336732 3.528408-6.135107 3.830842-5.731862 4.133277-5.530238 4.522121-5.227803 4.925369-4.925368 5.227803-4.522122 5.530238-4.133277 5.731861-3.830842 6.135108-3.528407 6.336731-3.024349 6.538355-2.621103 6.739977-2.117044 7.042413-1.713798 7.143224-1.310551 7.344848-0.705681 7.445659-0.302435 7.748094 0.302435 7.748094 0.705681 7.445659 1.310551 7.344847 1.713798 7.143225 2.117044 7.042412 2.621103 6.739978 3.024349 6.538354 3.528407 6.336732 3.830842 6.135107 4.133277 5.731862 4.522122 5.530238 4.925368 5.227803 5.227803 4.925368 5.530238 4.522122 5.731862 4.133277 6.135107 3.830842 6.336732 3.528407 6.538354 3.024349 6.739978 2.621103 7.042412 2.117044 7.143225 1.713798 7.344847 1.310551 7.445659 0.705681 7.748094 0.34564z" fill="#FFFFFF" p-id="47958"></path><path d="M1162.876578 319.110091l-8.151341-0.331239-7.8057-0.748886-7.589676-1.353756-7.373651-1.771405-7.373651-2.217855-6.984806-2.721914-6.826387-3.168366-6.523953-3.629219-6.379936-3.98926-5.947887-4.291695-5.760664-4.723745-5.415025-5.11259-5.126992-5.45823-4.694941-5.746263-4.291696-5.97669-3.931653-6.322329-3.672424-6.624765-3.125161-6.783182-2.721914-7.071216-2.174651-7.287241-1.757002-7.388052-1.353756-7.690488-0.720084-7.690487-0.302434-7.920914 0.331238-8.151341 0.748886-7.791299 1.353756-7.589675 1.771405-7.388053 2.217856-7.359249 2.721914-6.984806 3.168365-6.826388 3.629219-6.523952 3.98926-6.379937 4.291696-5.947886 4.723745-5.760665 5.11259-5.415024 5.458229-5.126992 5.746263-4.694942 5.97669-4.291695 6.32233-3.931653 6.624764-3.672424 6.783183-3.125161 7.071215-2.721914 7.287241-2.174651 7.388053-1.757003 7.704889-1.353756 7.690487-0.720083 7.920914-0.302435 8.151341 0.331239 7.8057 0.748886 7.589676 1.353756 7.388052 1.771405 7.35925 2.217855 6.999207 2.721914 6.826388 3.168366 6.523953 3.629219 6.379936 3.98926 5.947886 4.291695 5.760665 4.723745 5.415025 5.11259 5.126991 5.45823 4.694942 5.746263 4.291695 5.97669 3.931654 6.322329 3.672423 6.624765 3.125161 6.783182 2.721914 7.071216 2.174651 7.287241 1.757003 7.388052 1.353756 7.690488 0.720083 7.690487 0.302435 7.920914-0.331238 8.151341-0.748887 7.791299-1.353756 7.589675-1.771404 7.373651-2.217856 7.359249-2.721914 6.984806-3.168366 6.826388-3.629219 6.523953-3.98926 6.379936-4.291695 5.947886-4.723745 5.760665-5.11259 5.415025-5.45823 5.126991-5.746263 4.694942-5.976689 4.291695-6.32233 3.931654-6.624764 3.672424-6.783183 3.12516-7.071216 2.721914-7.287241 2.174651-7.388052 1.757003-7.690488 1.353756-7.690487 0.720083-7.949717 0.316837z m-7.474463-8.929031l7.460061 0.288034 7.460061-0.288034 7.157626-0.676878 7.042412-1.252944 6.898396-1.656191 6.768781-2.030635 6.466346-2.505889 6.264723-2.894734 6.106305-3.38439 5.919083-3.686826 5.515836-3.960457 5.314213-4.349301 5.02618-4.738147 4.738147-5.02618 4.349302-5.314213 3.960457-5.515837 3.686825-5.919083 3.384391-6.106304 2.894734-6.279125 2.505889-6.451944 2.030634-6.768781 1.656191-6.898396 1.252945-7.042413 0.676878-7.157626 0.288033-7.46006-0.288033-7.460061-0.676878-7.157626-1.252945-7.042413-1.656191-6.898396-2.030634-6.768781-2.505889-6.466346-2.894734-6.279124-3.384391-6.106305-3.686825-5.919083-3.960457-5.515836-4.349302-5.314213-4.738147-5.02618-5.02618-4.738147-5.314213-4.349302-5.515836-3.960457-5.919083-3.686825-6.106305-3.384391-6.279124-2.894734-6.451945-2.505889-6.768781-2.030634-6.898396-1.656191-7.042412-1.252945-7.157626-0.676878-7.460061-0.288033-7.460061 0.288033-7.157626 0.676878-7.042412 1.252945-6.898396 1.656191-6.768781 2.030634-6.451945 2.505889-6.279124 2.894734-6.106305 3.384391-5.919083 3.686825-5.515836 3.960457-5.314213 4.349302-5.02618 4.738147-4.738147 5.02618-4.349302 5.314213-3.960457 5.515836-3.686825 5.919083-3.398792 6.106305-2.894734 6.279124-2.505889 6.466346-2.030635 6.768781-1.656191 6.898396-1.252944 7.042413-0.676878 7.157626-0.288034 7.460061 0.288034 7.46006 0.676878 7.157626 1.252944 7.042413 1.656191 6.898396 2.030635 6.768781 2.505889 6.451944 2.894734 6.279125 3.398792 6.106304 3.686825 5.919083 3.960457 5.515837 4.349302 5.314213 4.738147 5.02618 5.02618 4.738147 5.314213 4.349301 5.515836 3.960457 5.919083 3.686826 6.106305 3.38439 6.279124 2.894734 6.451945 2.505889 6.768781 2.030635 6.898396 1.656191 7.042412 1.252944 7.157626 0.676878z" fill="#D7DFEA" p-id="47959"></path><path d="M1221.275316 153.634997H1104.463438a7.834504 7.834504 0 0 0-7.834504 7.834504v24.007571l0.360041 0.345639 21.501681 25.39013 14.459269-25.39013c0.705681-1.051321 1.757003-1.757003 3.168365-1.757002 1.411363 0 2.462684 0.705681 3.168366 1.757002l5.991091 10.22518h20.752795a9.581426 9.581426 0 0 1 3.744432-4.018063 9.525259 9.525259 0 0 1 9.519498 0 9.519498 9.519498 0 0 1 4.752549 8.23775 9.519498 9.519498 0 0 1-4.752549 8.237751 9.525259 9.525259 0 0 1-9.519498 0 9.5339 9.5339 0 0 1-4.190884-5.069385h-22.077747c-1.411363 0-2.462684-0.705681-3.168366-1.757003l-4.234088-7.056814-14.099227 24.684448c-0.705681 1.051321-1.757003 1.757003-2.822726 1.757003s-2.117044-0.705681-2.822726-1.411363l-19.744678-23.273086v48.274371a7.834504 7.834504 0 0 0 7.834504 7.834504h116.82628a7.834504 7.834504 0 0 0 7.834504-7.834504V161.469501c0-4.3349-3.499604-7.834504-7.834504-7.834504z" fill="#D7DFEA" p-id="47960"></path><path d="M464.496796 785.738332l-0.25923-10.225179-0.907305-10.22518-1.425764-10.095565-1.944225-9.96595-2.592299-9.836335-3.110759-9.70672-3.629219-9.44749-4.277293-9.317875 25.260515-81.066954-76.141586 18.074085-8.165742-5.962288-8.295357-5.443828-8.554587-4.925368-8.554587-4.406909-8.929031-4.018063-11.262099-4.147679-11.52133-3.499604-11.650944-2.592299-11.780559-1.944224-11.910174-1.03692-11.78056-0.25923-11.910174 0.51846-11.780559 1.166535-11.78056 2.073839-11.521329 2.851529-11.391714 3.629219-11.391715 4.406908-8.684202 4.018064-8.684202 4.536523-8.295357 5.054984-8.295357 5.703058-8.036127 6.091903-7.647283 6.610362-7.258437 6.869593-6.739978 7.128823-6.221518 7.388052-5.832673 7.776897-6.610363 10.095565-5.962288 10.48441-5.184598 10.614025-4.406908 11.132484-3.758834 11.2621-2.981144 11.521329-2.145848 11.650944-1.425764 11.910175-0.648075 11.780559 0.129615 11.910174 1.03692 12.039789 1.684994 11.910175 2.073839 9.44749 2.462685 9.44749 2.981144 9.317875 3.629218 9.18826 4.147679 9.18826 4.795753 9.058646 5.054984 8.554587 5.443828 8.036127 5.832673 7.776897 6.221518 7.388053 8.424972 8.813817 8.813817 8.165742 9.317875 7.517667 9.70672 6.739978 10.22518 6.221518 10.484409 5.443828 10.873255 4.795753 11.262099 4.018064 11.391715 3.369989 11.650944 2.462684 11.910174 1.814609 12.03979 0.907305 9.70672 0.25923 9.577105-0.388845 9.836335-0.77769 9.836335-1.425764 9.836335-2.073839 9.836335-2.5923 9.44749-2.981144 9.18826-3.499603 8.813817-3.888449 8.684202-4.406909 10.354795-6.221517 9.965949-6.739978 9.317876-7.388053 8.813817-8.036127 8.295357-8.554587 7.776897-9.058645 6.999208-9.44749 6.480747-10.095565 5.832673-10.354795 5.054984-10.743639 4.406908-11.132485 3.629219-11.650944 2.462684-9.317875 1.81461-9.577106 1.296149-9.70672 0.907305-9.836334 0.25923-10.124369z" fill="#2296FF" p-id="47961"></path><path d="M344.185314 955.519522l9.18826-3.499603 8.813817-3.888449 8.684202-4.406909 10.354795-6.221517 9.965949-6.739978 9.317876-7.388053 8.813817-8.036127 8.295357-8.554587 7.776897-9.058645 6.999208-9.44749 6.480747-10.095565 5.832673-10.354795 5.054984-10.743639 4.406908-11.132485 3.629219-11.650944 2.462684-9.317875 1.81461-9.577106 1.296149-9.70672 0.907305-9.836334 0.25923-10.095565-0.25923-10.22518-0.907305-10.22518-1.425764-10.095565-1.944225-9.96595-2.592299-9.836335-3.110759-9.70672-3.629219-9.44749-4.277293-9.317875 25.260515-81.066954-76.184791 18.045282-8.165742-5.962288-8.295357-5.443828-8.554587-4.925368-8.554587-4.406909-8.929031-4.018063-11.262099-4.147679-11.52133-3.499604-11.650944-2.592299-11.780559-1.944224-11.910174-1.03692-11.78056-0.25923-11.910174 0.51846-11.780559 1.166535-11.78056 2.073839-11.521329 2.851529-11.391714 3.629219" fill="#FFFFFF" opacity=".2" p-id="47962"></path><path d="M363.339524 853.541356H212.741347c-14.862515 0-26.945509-12.097396-26.945509-26.945509v-95.871862c0-14.862515 12.097396-26.945509 26.945509-26.94551h150.598177c14.862515 0 26.945509 12.082994 26.945509 26.94551v95.871862c0.014402 14.862515-12.082994 26.945509-26.945509 26.945509z m-150.598177-141.136285c-10.095565 0-18.304512 8.208947-18.304512 18.304512v95.871862c0 10.095565 8.208947 18.304512 18.304512 18.304512h150.598177c10.095565 0 18.304512-8.208947 18.304512-18.304512v-95.871862c0-10.095565-8.208947-18.304512-18.304512-18.304512H212.741347z" fill="#FFFFFF" p-id="47963"></path><path d="M400.236581 712.405071H175.84429c-2.390676 0-4.320499-1.929823-4.320499-4.320499s1.929823-4.320499 4.320499-4.320498h224.377889c2.390676 0 4.320499 1.929823 4.320499 4.320498s-1.915421 4.320499-4.306097 4.320499zM196.323453 889.559912c-1.065723 0-2.145848-0.388845-2.981144-1.195338a4.320499 4.320499 0 0 1-0.158419-6.106305l33.671086-35.442489a4.320499 4.320499 0 0 1 6.106304-0.158419 4.320499 4.320499 0 0 1 0.158418 6.106305l-33.671085 35.44249c-0.849698 0.892903-1.987429 1.353756-3.12516 1.353756zM379.77182 889.559912c-1.137731 0-2.289864-0.446452-3.139563-1.339355l-33.671085-35.442489a4.320499 4.320499 0 0 1 0.158419-6.106305 4.320499 4.320499 0 0 1 6.106304 0.158418l33.671085 35.44249a4.320499 4.320499 0 0 1-0.158418 6.106304c-0.835296 0.77769-1.901019 1.180936-2.966742 1.180937zM241.242236 809.472271c-2.390676 0-4.320499-1.929823-4.320499-4.320499v-21.602492c0-2.390676 1.929823-4.320499 4.320499-4.320499s4.320499 1.929823 4.320498 4.320499v21.602492c0 2.390676-1.944224 4.320499-4.320498 4.320499zM272.436235 809.472271c-2.390676 0-4.320499-1.929823-4.320499-4.320499v-53.286148c0-2.390676 1.929823-4.320499 4.320499-4.320499s4.320499 1.929823 4.320498 4.320499v53.286148c0 2.390676-1.929823 4.320499-4.320498 4.320499zM303.644636 809.472271c-2.390676 0-4.320499-1.929823-4.320499-4.320499v-36.004154c0-2.390676 1.929823-4.320499 4.320499-4.320499s4.320499 1.929823 4.320498 4.320499v36.004154c0 2.390676-1.929823 4.320499-4.320498 4.320499zM334.853037 809.472271c-2.390676 0-4.320499-1.929823-4.320499-4.320499v-46.085317c0-2.390676 1.929823-4.320499 4.320499-4.320499s4.320499 1.929823 4.320498 4.320499v46.085317c0 2.390676-1.944224 4.320499-4.320498 4.320499z" fill="#FFFFFF" p-id="47964"></path><path d="M288.047636 710.849691c-2.390676 0-4.320499-1.929823-4.320498-4.320498v-20.306343c0-2.390676 1.929823-4.320499 4.320498-4.320499s4.320499 1.929823 4.320499 4.320499v20.306343c0 2.390676-1.944224 4.320499-4.320499 4.320498z" fill="#FFFFFF" p-id="47965"></path><path d="M565.193214 907.115537l-5.530238 1.526577-4.018063 1.512174-2.477086 1.20974-3.686825 2.808324-2.808325 3.686825-1.123329 2.405078-1.440166 3.931653-1.440166 5.357418-1.612987-5.530238-1.526576-4.003662-1.281748-2.491487-2.721914-3.686826-3.686825-2.721914-2.405078-1.195338-4.003662-1.368157-5.371819-1.440167 5.371819-1.612986 4.003662-1.512174 2.491488-1.20974 3.758834-2.808324 1.440166-1.684994 1.368158-2.001831 1.209739-2.318668 1.440166-4.018063 1.526577-5.28541 1.440166 5.37182 1.440166 3.931653 1.123329 2.477086 2.808325 3.686825 3.686825 2.808324 2.477086 1.20974 4.018063 1.440166zM1023.166057 91.088581l-7.085617 1.944224-5.141393 1.958626-3.182768 1.540978-4.723745 3.586014-3.586013 4.723745-1.440167 3.081955-1.857814 5.040582-1.843413 6.869592-2.059437-7.085617-1.944225-5.126992-1.641789-3.182767-3.499604-4.723745-4.723745-3.499604-3.081956-1.540978-5.126991-1.742601-6.883994-1.843412 6.883994-2.059438 5.126991-1.944224 3.197169-1.540978 4.824557-3.600416 1.843413-2.160249 1.742601-2.563496 1.540978-2.981144 1.857814-5.126991 1.944224-6.783183 1.843413 6.883994 1.857814 5.02618 1.440167 3.182768 3.586013 4.723745 4.723745 3.600415 3.182768 1.540978 5.141393 1.843413z" fill="#2296FF" p-id="47966"></path><path d="M277.836858 87.200132h-49.383298c-2.390676 0-4.320499-1.929823-4.320499-4.320499s1.929823-4.320499 4.320499-4.320498h49.383298c2.390676 0 4.320499 1.929823 4.320499 4.320498s-1.929823 4.320499-4.320499 4.320499z" fill="#2296FF" p-id="47967"></path><path d="M253.210016 111.97099c-2.390676 0-4.320499-1.929823-4.320498-4.320498v-49.3977c0-2.390676 1.929823-4.320499 4.320498-4.320499s4.320499 1.929823 4.320499 4.320499v49.383298c0 2.405078-1.929823 4.3349-4.320499 4.3349z" fill="#2296FF" p-id="47968"></path><path d="M631.224833 134.019934m-19.528653 0a19.528653 19.528653 0 1 0 39.057307 0 19.528653 19.528653 0 1 0-39.057307 0Z" fill="#FFFFFF" p-id="47969"></path><path d="M631.224833 123.132278c6.005493 0 10.887656 4.882163 10.887657 10.887656s-4.882163 10.887656-10.887657 10.887656-10.887656-4.882163-10.887656-10.887656 4.882163-10.887656 10.887656-10.887656m0-8.640997c-10.786845 0-19.528653 8.741809-19.528653 19.528653s8.741809 19.528653 19.528653 19.528654 19.528653-8.741809 19.528654-19.528654-8.741809-19.528653-19.528654-19.528653z" fill="#2296FF" p-id="47970"></path></svg>