<?xml version="1.0" standalone="no"?><!DOCTYPE svg PUBLIC "-//W3C//DTD SVG 1.1//EN" "http://www.w3.org/Graphics/SVG/1.1/DTD/svg11.dtd"><svg t="1744257288319" class="icon" viewBox="0 0 1024 1024" version="1.1" xmlns="http://www.w3.org/2000/svg" p-id="6425" xmlns:xlink="http://www.w3.org/1999/xlink" width="1024" height="1024"><path d="M46.946 405.308v363.48l336.522 192.138-1.084-360.704-335.438-194.914z" fill="#C4C2C0" p-id="6426"></path><path d="M979.318 620.504l-200.468 114.472v0.14l-19.022 10.828-73.452 41.906-18.748 10.712-284.16 162.364-0.118-6.5v-18.766l-0.984-335.458 595.87-343.966 0.984 344.576 0.098 19.692z" fill="#D6D4D2" p-id="6427"></path><path d="M978.294 256.178L382.404 600.22 46.966 405.268 642.856 61.244l335.44 194.934z" fill="#E9E8E6" p-id="6428"></path><path d="M118.134 405.386l35.662 20.754 489-282.346V102.478L118.136 405.386z" fill="#D6D4D2" p-id="6429"></path><path d="M642.796 102.48v41.314l228.668 132.882 35.642-20.598-264.31-153.6z" fill="#C4C2C0" p-id="6430"></path><path d="M871.462 276.676L642.796 143.794 153.796 426.14l228.668 132.904 489-282.37z" fill="#B2B0AF" p-id="6431"></path><path d="M378.428 938.654l4.98-2.896-0.156 19.574-4.982 2.916 0.158-19.594z" fill="#979999" p-id="6432"></path><path d="M39.542 747.658l7.404-4.294 336.464 192.394-7.386 4.294-336.48-192.394z" fill="#5B5E71" p-id="6433"></path><path d="M376.024 940.052l0.06 19.496-336.7-192.296 0.16-19.594 336.48 192.394z" fill="#525566" p-id="6434"></path><path d="M381.42 943.164l-5.514-3.21 0.178 19.594 5.514 3.19-0.178-19.574z" fill="#525566" p-id="6435"></path><path d="M984.5 598.45l-5.516-3.21-603.058 344.714 5.514 3.21 603.06-344.714z" fill="#5B5E71" p-id="6436"></path><path d="M984.616 618.062l-603.04 344.674-0.156-19.574 286.602-163.84 18.766-10.732 73.452-42.022 18.984-10.832 205.274-117.366 0.12 19.692z" fill="#474B59" p-id="6437"></path><path d="M616.27 542.266l-6.656-3.88 6.972 3.368 6.676 3.88-6.992-3.368z m-7.58-26.21l6.674 3.88c0.296 0.158 0.572 0.354 0.848 0.552l-6.676-3.86a9.03 9.03 0 0 0-0.846-0.572z m-15.046 40.784l-6.656-3.86a6.97 6.97 0 0 0 3.092 0.886 14.04 14.04 0 0 0 7.76-2.284c4.706-2.718 8.604-7.09 11.774-13.194l6.656 3.88c-3.15 6.104-7.068 10.476-11.756 13.192a14.04 14.04 0 0 1-7.778 2.286 6.972 6.972 0 0 1-3.092-0.906z m21.544-52.5l6.676 3.88a11.816 11.816 0 0 0-6.992-1.44 26.78 26.78 0 0 0-11.028 3.92l-6.656-3.88c4.058-2.362 7.74-3.642 11.028-3.9a11.814 11.814 0 0 1 6.972 1.42z" fill="#F25A5A" p-id="6438"></path><path d="M585.294 568.754l-6.676-3.88a11.598 11.598 0 0 1-3.446-3.092c-2.204-2.954-3.328-7.09-3.346-12.446 0-5.316 1.082-10.752 3.268-16.246a55.728 55.728 0 0 1 9.08-15.162 48.446 48.446 0 0 1 12.996-11.108l6.694 3.88a48.446 48.446 0 0 0-13.016 11.088 55.728 55.728 0 0 0-9.08 15.162c-2.184 5.514-3.286 10.93-3.268 16.266 0 5.316 1.142 9.472 3.348 12.446 0.986 1.3 2.128 2.342 3.446 3.092z" fill="#F25A5A" p-id="6439"></path><path d="M603.844 510.7c4.078-2.362 7.74-3.642 11.028-3.92a11.382 11.382 0 0 1 8.272 2.326l-6.932 11.38c-3.17-2.36-7.09-2.204-11.816 0.514a28.218 28.218 0 0 0-7.74 6.676 32.868 32.868 0 0 0-5.316 9.176 27.848 27.848 0 0 0-1.87 10.024c0 3.346 0.65 5.946 1.93 7.818 1.28 1.87 3.072 2.914 5.336 3.052 2.264 0.138 4.884-0.612 7.78-2.284 4.686-2.72 8.604-7.09 11.754-13.194l6.992 3.366a51.134 51.134 0 0 1-8.272 11.934 47.266 47.266 0 0 1-11.026 8.86c-4.786 2.76-9.12 4.04-12.998 3.88a11.42 11.42 0 0 1-9.118-4.666c-2.206-2.954-3.348-7.09-3.348-12.426 0-5.316 1.084-10.752 3.27-16.246a55.728 55.728 0 0 1 9.06-15.182 48.448 48.448 0 0 1 13.014-11.088z" fill="#CC4848" p-id="6440"></path><path d="M564.342 555.58l6.656 3.88a7.896 7.896 0 0 0-5.298-0.868 65.574 65.574 0 0 0-8.762 2.146l-6.676-3.88c3.584-1.082 6.5-1.79 8.782-2.146a7.896 7.896 0 0 1 5.3 0.868z" fill="#F25A5A" p-id="6441"></path><path d="M535.12 599.906l-6.676-3.86 3.66-11.52 6.678 3.88-3.664 11.5z" fill="#DD4A4A" p-id="6442"></path><path d="M555.56 567.926l6.676 3.86c0.688 0.394 1.042 1.18 1.042 2.304 0 1.772-0.728 3.584-2.204 5.474-1.478 1.89-3.742 3.74-6.814 5.514-2.776 1.614-5.534 2.698-8.31 3.27a15.852 15.852 0 0 1-7.168 0.06l-6.676-3.88a15.852 15.852 0 0 0 7.168-0.06c2.776-0.572 5.534-1.654 8.31-3.25 3.092-1.772 5.356-3.622 6.834-5.514a9.04 9.04 0 0 0 2.186-5.474c0-1.142-0.356-1.91-1.044-2.304z m-7.78-5.71l-6.674-3.88c0.394 0.216 0.886 0.316 1.496 0.296 1.674-0.06 4.234-0.65 7.68-1.772l6.656 3.88c-2.478 0.904-5.056 1.5-7.68 1.77a2.7 2.7 0 0 1-1.478-0.294z m7.878-23.71l-6.656-3.86c2.994-1.732 5.908-3.012 8.762-3.84a18.156 18.156 0 0 1 7.504-0.788l6.676 3.86a18.156 18.156 0 0 0-7.524 0.788 39.58 39.58 0 0 0-8.762 3.84z" fill="#F25A5A" p-id="6443"></path><path d="M539.136 574.346l-6.676-3.88a7.35 7.35 0 0 1-0.688-0.452c-1.636-1.22-2.462-3.624-2.482-7.208 0-3.132 0.728-6.38 2.186-9.786 1.476-3.388 3.682-6.676 6.656-9.886 2.954-3.19 6.576-6.026 10.87-8.488l6.656 3.86c-4.274 2.48-7.896 5.316-10.85 8.506-2.974 3.21-5.2 6.5-6.656 9.886a24.36 24.36 0 0 0-2.186 9.788c0 3.584 0.826 5.986 2.46 7.206 0.228 0.166 0.466 0.316 0.71 0.454z" fill="#F25A5A" p-id="6444"></path><path d="M555.658 538.506c2.994-1.714 5.908-2.994 8.762-3.82a18.156 18.156 0 0 1 7.524-0.788l-3.328 11.382c-4.332-0.316-8.666 0.788-12.998 3.268-3.032 1.754-5.258 3.604-6.694 5.574a9.65 9.65 0 0 0-2.168 5.71c0 1.852 0.828 2.758 2.5 2.68 1.676-0.08 4.236-0.67 7.68-1.774 3.566-1.082 6.5-1.792 8.764-2.146a7.74 7.74 0 0 1 5.87 1.24c1.654 1.162 2.46 3.546 2.48 7.13 0 3.072-0.728 6.3-2.224 9.708-1.498 3.406-3.722 6.694-6.696 9.924a46.496 46.496 0 0 1-10.91 8.528c-3.72 2.146-7.286 3.622-10.752 4.47-3.466 0.846-6.242 0.944-8.35 0.314l3.664-11.5a15.85 15.85 0 0 0 7.168-0.06c2.756-0.59 5.514-1.654 8.31-3.248 3.072-1.772 5.356-3.644 6.814-5.514a9.04 9.04 0 0 0 2.204-5.494c0-1.28-0.452-2.088-1.32-2.422a6.044 6.044 0 0 0-3.346-0.12c-1.38 0.278-3.21 0.79-5.514 1.498-3.584 1.102-6.5 1.812-8.802 2.146a7.54 7.54 0 0 1-5.87-1.3c-1.634-1.22-2.44-3.622-2.46-7.206 0-3.152 0.708-6.4 2.186-9.788 1.456-3.386 3.68-6.676 6.656-9.886 2.954-3.19 6.576-6.024 10.85-8.506z" fill="#CC4848" p-id="6445"></path><path d="M662.706 531.574l-6.676-3.88-0.06-22.074 6.656 3.88 0.08 22.074z m-0.1-32.63l-6.674-3.86-0.06-21.228 6.676 3.88 0.06 21.208z" fill="#DD4A4A" p-id="6446"></path><path d="M662.548 477.736l-6.676-3.88 10.85-6.262 6.676 3.88-10.85 6.26z m-21.228 33.496l-6.656-3.86 21.268-12.288 6.674 3.86-21.286 12.288z m-10.89-14.966l-6.676-3.86 10.83-6.262 6.696 3.86-10.85 6.26z" fill="#F25A5A" p-id="6447"></path><path d="M630.568 550.124l-6.656-3.88-0.16-53.838 6.678 3.86 0.138 53.86z" fill="#DD4A4A" p-id="6448"></path><path d="M673.398 471.474l0.138 53.838-10.83 6.262-0.08-22.074-21.268 12.268 0.06 22.094-10.83 6.262-0.16-53.86 10.832-6.26 0.06 21.228 21.268-12.288-0.04-21.208 10.85-6.262z" fill="#CC4848" p-id="6449"></path><path d="M753.31 464.74l-6.656-3.88c0.912 0.514 1.928 0.818 2.972 0.886a13.194 13.194 0 0 0 7.504-2.128c2.756-1.594 5.258-3.76 7.482-6.518a33.016 33.016 0 0 0 5.24-9.156l6.674 3.88a33.012 33.012 0 0 1-5.238 9.156c-2.224 2.756-4.726 4.922-7.482 6.5a13.194 13.194 0 0 1-7.504 2.164 6.956 6.956 0 0 1-2.992-0.906z" fill="#F25A5A" p-id="6450"></path><path d="M767.508 423.916l6.676 3.88c0.918 0.544 1.7 1.292 2.284 2.186a13.784 13.784 0 0 1 1.95 7.818c0 3.348-0.63 6.676-1.892 10.042l-6.674-3.9c1.26-3.346 1.91-6.694 1.89-10.04a13.784 13.784 0 0 0-1.93-7.8 7.012 7.012 0 0 0-2.304-2.186z" fill="#F25A5A" p-id="6451"></path><path d="M744.9 476.514l-6.674-3.9a11.54 11.54 0 0 1-3.428-3.09c-2.204-2.954-3.346-7.09-3.346-12.368 0-5.276 1.082-10.672 3.268-16.166a56.216 56.216 0 0 1 9.138-15.262 49.228 49.228 0 0 1 13.154-11.204c4.864-2.816 9.236-4.136 13.114-3.96 2.186 0.1 4.116 0.632 5.77 1.576l6.676 3.9a12.386 12.386 0 0 0-5.77-1.596c-3.9-0.176-8.27 1.142-13.134 3.96a49.234 49.234 0 0 0-13.136 11.204 56.258 56.258 0 0 0-9.136 15.26c-2.206 5.496-3.288 10.89-3.27 16.148 0 5.318 1.124 9.414 3.348 12.388a11.582 11.582 0 0 0 3.426 3.09v0.02z" fill="#F25A5A" p-id="6452"></path><path d="M786 419.132c2.244 2.934 3.366 7.048 3.386 12.326 0 5.278-1.084 10.674-3.308 16.208-2.206 5.514-5.26 10.594-9.138 15.26a48.922 48.922 0 0 1-13.114 11.186c-4.864 2.796-9.256 4.136-13.156 3.978a11.52 11.52 0 0 1-9.196-4.668c-2.224-2.954-3.348-7.088-3.348-12.366-0.02-5.278 1.064-10.674 3.27-16.168 2.186-5.514 5.238-10.594 9.136-15.26a49.23 49.23 0 0 1 13.136-11.206c4.864-2.816 9.256-4.136 13.134-3.958a11.62 11.62 0 0 1 9.196 4.668z m-9.474 28.69c1.26-3.346 1.892-6.694 1.892-10.042a13.784 13.784 0 0 0-1.95-7.8 6.696 6.696 0 0 0-5.26-3.09 13.194 13.194 0 0 0-7.5 2.146c-2.758 1.576-5.26 3.76-7.484 6.5a33.398 33.398 0 0 0-5.258 9.176c-1.26 3.348-1.89 6.676-1.87 10.004 0 3.346 0.65 5.946 1.93 7.836 1.28 1.872 3.032 2.896 5.276 3.072 2.246 0.178 4.726-0.532 7.484-2.126 2.776-1.614 5.278-3.78 7.502-6.52a33.02 33.02 0 0 0 5.24-9.156z" fill="#CC4848" p-id="6453"></path><path d="M696.832 497.35l-6.676-3.88c0.918 0.518 1.94 0.82 2.994 0.886 2.65 0.06 5.26-0.682 7.482-2.128 2.778-1.594 5.278-3.76 7.504-6.518a33.014 33.014 0 0 0 5.238-9.156l6.656 3.88a32.952 32.952 0 0 1-5.22 9.156c-2.224 2.758-4.726 4.924-7.482 6.5a13.194 13.194 0 0 1-7.522 2.164 6.932 6.932 0 0 1-2.974-0.904z" fill="#F25A5A" p-id="6454"></path><path d="M711.03 456.526l6.676 3.88c0.918 0.546 1.7 1.292 2.284 2.186a13.784 13.784 0 0 1 1.93 7.818c0 3.348-0.61 6.676-1.89 10.042l-6.656-3.9c1.26-3.346 1.89-6.694 1.89-10.02a13.784 13.784 0 0 0-1.95-7.82 7.01 7.01 0 0 0-2.284-2.186z" fill="#F25A5A" p-id="6455"></path><path d="M688.404 509.124l-6.656-3.88a11.544 11.544 0 0 1-3.426-3.09c-2.226-2.954-3.348-7.09-3.348-12.366-0.02-5.28 1.062-10.674 3.268-16.168 2.186-5.514 5.24-10.594 9.138-15.26a49.23 49.23 0 0 1 13.134-11.206c4.864-2.798 9.256-4.136 13.136-3.96 2.166 0.1 4.096 0.632 5.77 1.576l6.656 3.9a12.386 12.386 0 0 0-5.77-1.596c-3.88-0.158-8.272 1.142-13.116 3.96a49.228 49.228 0 0 0-13.154 11.204 56.262 56.262 0 0 0-9.138 15.26c-2.186 5.496-3.288 10.89-3.268 16.168 0 5.278 1.14 9.394 3.348 12.368a11.828 11.828 0 0 0 3.426 3.09z" fill="#F25A5A" p-id="6456"></path><path d="M729.52 451.74c2.226 2.936 3.348 7.052 3.368 12.328 0.02 5.28-1.082 10.674-3.288 16.208a57.296 57.296 0 0 1-9.156 15.26 48.92 48.92 0 0 1-13.096 11.186c-4.864 2.796-9.256 4.136-13.174 3.98a11.52 11.52 0 0 1-9.196-4.668c-2.206-2.954-3.348-7.09-3.348-12.368 0-5.278 1.082-10.672 3.268-16.166 2.206-5.514 5.26-10.596 9.138-15.262a49.23 49.23 0 0 1 13.154-11.206c4.864-2.816 9.236-4.134 13.116-3.958a11.62 11.62 0 0 1 9.216 4.668z m-9.49 28.694c1.28-3.348 1.91-6.696 1.89-10.044a13.786 13.786 0 0 0-1.93-7.798c-1.28-1.89-3.032-2.914-5.278-3.092-2.244-0.176-4.726 0.552-7.482 2.166-2.778 1.576-5.28 3.742-7.484 6.5a32.588 32.588 0 0 0-5.258 9.156c-1.26 3.348-1.89 6.696-1.89 10.004 0 3.348 0.65 5.946 1.93 7.838 1.28 1.87 3.052 2.894 5.278 3.072 2.224 0.176 4.726-0.532 7.502-2.128 2.758-1.594 5.278-3.78 7.484-6.518a32.53 32.53 0 0 0 5.238-9.156z" fill="#CC4848" p-id="6457"></path><path d="M808.428 437.268l-6.656-3.88 23.494-13.588 6.674 3.9-23.512 13.568z" fill="#F25A5A" p-id="6458"></path><path d="M797.636 453.672l-6.674-3.88-0.16-53.84 6.678 3.88 0.156 53.84z" fill="#DD4A4A" p-id="6459"></path><path d="M797.48 399.832l-6.676-3.88 10.83-6.26 6.696 3.88-10.85 6.26z" fill="#F25A5A" p-id="6460"></path><path d="M808.31 393.57l0.12 43.698 23.51-13.588 0.02 10.16-34.324 19.832-0.156-53.84 10.83-6.26z" fill="#CC4848" p-id="6461"></path><path d="M73.944 463.28l13.844 7.976-0.276 94.82-13.862 7.974 0.294-110.768z" fill="#D6D4D2" p-id="6462"></path><path d="M87.512 566.076l114.02 65.87-0.04 15.99-127.842-73.846v-0.04l13.862-7.974z" fill="#FFFFFF" p-id="6463"></path><path d="M87.788 471.256l114.04 65.812-0.296 94.878-114.02-65.87 0.276-94.82z" fill="#3F9AE0" p-id="6464"></path><path d="M228.884 552.684l13.844 7.996-0.276 94.818-13.864 7.976 0.296-110.79z" fill="#D6D4D2" p-id="6465"></path><path d="M242.452 655.498l114.018 65.87-0.04 15.99-127.84-73.846v-0.04l13.86-7.974z" fill="#FFFFFF" p-id="6466"></path><path d="M242.728 560.68l114.038 65.812-0.296 94.876-114.02-65.87 0.278-94.82z" fill="#3F9AE0" p-id="6467"></path><path d="M73.944 610.974l13.844 7.974-0.276 94.84-13.862 7.954 0.294-110.768z" fill="#D6D4D2" p-id="6468"></path><path d="M87.512 713.788l114.02 65.85-0.04 15.99-127.842-73.846v-0.04l13.862-7.954z" fill="#FFFFFF" p-id="6469"></path><path d="M87.788 618.948l114.04 65.832-0.296 94.858-114.02-65.85 0.276-94.84z" fill="#3F9AE0" p-id="6470"></path><path d="M228.884 700.396l13.844 7.976-0.276 94.818-13.864 7.976 0.296-110.77z" fill="#D6D4D2" p-id="6471"></path><path d="M242.452 803.19l114.018 65.87-0.04 15.992-127.84-73.848v-0.04l13.86-7.974z" fill="#FFFFFF" p-id="6472"></path><path d="M242.728 708.372l114.038 65.812-0.296 94.876-114.02-65.87 0.278-94.82z" fill="#3F9AE0" p-id="6473"></path><path d="M558.71 619.4l-15.852 9.16 0.296 128.984 15.91 9.156-0.354-147.3z" fill="#C4C2C0" p-id="6474"></path><path d="M543.154 757.564l-104.508 60.376 0.06 18.334 120.36-69.534v-0.04l-15.912-9.136z" fill="#FFFFFF" p-id="6475"></path><path d="M542.858 628.56l-104.566 60.336 0.354 129.044 104.508-60.376-0.296-129.006z" fill="#3F9AE0" p-id="6476"></path><path d="M939.48 399.656l-15.852 9.156 0.296 128.984 15.892 9.158-0.336-147.3z" fill="#C4C2C0" p-id="6477"></path><path d="M923.924 537.796l-104.508 60.398 0.06 18.332 120.34-69.532v-0.04l-15.892-9.158z" fill="#FFFFFF" p-id="6478"></path><path d="M923.628 408.812l-104.566 60.338 0.354 129.044 104.508-60.378-0.296-129.004z" fill="#3F9AE0" p-id="6479"></path><path d="M603.274 585.57l167.66-96.768 0.472 224.926-7.088 4.234-160.512 91.726-0.532-224.118z" fill="#FFFFFF" p-id="6480"></path><path d="M757.898 512.788l-18.374 10.634 0.356 186.486 18.432 10.91-0.414-208.03zM604.928 809.04l0.158 25.106 117.858 68.49-0.158-25.108-117.858-68.488z" fill="#C4C2C0" p-id="6481"></path><path d="M640.08 854.47l82.864 48.166-0.158-25.108-82.708-48.048v24.99z" fill="#B2B0AF" p-id="6482"></path><path d="M690.55 883.79l32.394 18.846-0.158-25.108-32.236-18.726v24.988z" fill="#C4C2C0" p-id="6483"></path><path d="M722.786 877.548l0.158 25.088 142.788-82.432-0.156-25.108-142.79 82.452z" fill="#B2B0AF" p-id="6484"></path><path d="M759.868 881.33l105.864-61.126-0.156-25.108-105.708 61.046v25.188z" fill="#C4C2C0" p-id="6485"></path><path d="M813.726 850.216l52.006-30.012-0.156-25.108-51.85 29.934v25.186z" fill="#B2B0AF" p-id="6486"></path><path d="M604.928 809.04l117.86 68.488 142.768-82.432-117.84-68.49-142.788 82.432z" fill="#E9E8E6" p-id="6487"></path><path d="M618.24 779.954l0.138 21.326 100.136 58.19-0.14-21.326-100.134-58.19z" fill="#C4C2C0" p-id="6488"></path><path d="M648.33 818.688l70.184 40.782-0.14-21.326-70.044-40.704v21.248z" fill="#B2B0AF" p-id="6489"></path><path d="M688.68 842.14l29.834 17.33-0.14-21.326-29.694-17.25v21.248z" fill="#C4C2C0" p-id="6490"></path><path d="M718.376 838.144l0.138 21.326 121.304-70.026-0.138-21.326-121.304 70.026z" fill="#B2B0AF" p-id="6491"></path><path d="M752.324 839.956l87.494-50.512-0.138-21.326-87.356 50.432v21.406z" fill="#C4C2C0" p-id="6492"></path><path d="M798.996 813.016l40.82-23.572-0.136-21.326-40.684 23.494v21.404z" fill="#B2B0AF" p-id="6493"></path><path d="M618.24 779.954l100.136 58.19 121.304-70.026-100.136-58.19-121.304 70.026z" fill="#E9E8E6" p-id="6494"></path><path d="M739.88 709.908l-0.356-186.486-121.304 69.986 0.12 47.064 121.52 69.436h0.02z" fill="#CEA03A" p-id="6495"></path><path d="M739.86 709.908l-121.52-69.416 0.294 139.46 121.226-70.044z" fill="#EFC348" p-id="6496"></path><path d="M432.324 595.85c2.56 0.826 2.56 4.254 0 5.1a52.118 52.118 0 0 0-33.24 33.22 2.66 2.66 0 0 1-5.12 0 52.008 52.008 0 0 0-33.2-33.22 2.66 2.66 0 0 1 0-5.12 52.106 52.106 0 0 0 33.22-33.24 2.66 2.66 0 0 1 5.12 0 52.104 52.104 0 0 0 33.22 33.26z" fill="#FFFFFF" p-id="6497"></path></svg>