<?xml version="1.0" standalone="no"?><!DOCTYPE svg PUBLIC "-//W3C//DTD SVG 1.1//EN" "http://www.w3.org/Graphics/SVG/1.1/DTD/svg11.dtd"><svg t="1744255463959" class="icon" viewBox="0 0 1024 1024" version="1.1" xmlns="http://www.w3.org/2000/svg" p-id="4566" xmlns:xlink="http://www.w3.org/1999/xlink" width="1024" height="1024"><path d="M963.564 614.596l-0.216 61.992c-0.04 5.574-3.702 11.206-11.086 15.48L458.95 978.154c-14.81 8.604-38.894 8.604-53.76 0.02L71.66 785.586c-7.482-4.294-11.224-9.984-11.224-15.636l0.216-61.972c0 5.69 3.74 11.342 11.224 15.674l333.55 192.552c14.868 8.604 38.95 8.604 53.76 0l493.312-286.128c7.384-4.274 11.028-9.848 11.066-15.48z" fill="#6DCB60" p-id="4567"></path><path d="M952.516 630.076L459.184 916.204c-14.808 8.604-38.892 8.604-53.76 0l-197.848-114.216v62.09l197.612 114.1c14.868 8.582 38.952 8.582 53.76-0.02L952.26 692.064c7.384-4.272 11.028-9.886 11.088-15.478l0.216-61.992c-0.02 5.632-3.68 11.226-11.068 15.48h0.02z" fill="#3DB542" p-id="4568"></path><path d="M952.516 630.076l-377.44 218.78v61.814L952.26 692.066c7.386-4.272 11.028-9.886 11.088-15.478l0.216-61.992c-0.02 5.632-3.68 11.226-11.068 15.48h0.02z" fill="#2C9A2C" p-id="4569"></path><path d="M952.34 598.94c14.888 8.608 14.966 22.55 0.158 31.156L459.186 916.204c-14.81 8.606-38.894 8.606-53.76 0L71.876 723.672c-14.886-8.604-14.966-22.546-0.156-31.152l493.332-286.11c14.808-8.606 38.872-8.606 53.76 0L952.34 598.94z" fill="#81D672" p-id="4570"></path><path d="M353.18 155.708l1.222 416.374 179.792 104.468-1.24-416.376-179.772-104.466z" fill="#D6D4D2" p-id="4571"></path><path d="M532.952 260.174l1.22 416.374 201.492-116.34-1.24-416.356-201.472 116.322z" fill="#D6D4D2" p-id="4572"></path><path d="M353.18 155.708l179.772 104.466 201.474-116.32-179.752-104.47L353.18 155.708z" fill="#E9E8E6" p-id="4573"></path><path d="M381.52 155.766l17.21 9.984 155.924-90.014v-19.948l-173.136 99.98z" fill="#C4C2C0" p-id="4574"></path><path d="M554.654 55.788v19.948l134.242 78.02 17.21-9.944-151.452-88.024z" fill="#D6D4D2" p-id="4575"></path><path d="M688.896 153.758l-134.242-78.02-155.924 90.012 134.242 78.02 155.924-90.012z" fill="#909293" p-id="4576"></path><path d="M483.978 472.772l-7.956-4.626-0.296-103.898 7.976 4.628 0.276 103.896z" fill="#D6D4D2" p-id="4577"></path><path d="M483.702 368.876l-7.976-4.628 259.132-149.6 7.954 4.626-259.11 149.602z" fill="#E9E8E6" p-id="4578"></path><path d="M742.794 219.274l0.314 103.896-259.13 149.604-0.276-103.898 259.092-149.602z" fill="#B2B0AF" p-id="4579"></path><path d="M108.406 297l1.24 416.354 310.036 180.186-1.24-416.376L108.406 297z" fill="#D6D4D2" p-id="4580"></path><path d="M418.46 477.164l1.222 416.376 258.816-149.426-1.22-416.374-258.816 149.424z" fill="#C4C2C0" p-id="4581"></path><path d="M108.406 297l310.036 180.184L677.28 327.74 367.222 147.554 108.406 297z" fill="#E9E8E6" p-id="4582"></path><path d="M136.744 297.04l17.21 10.002 213.268-123.136V163.98l-230.48 133.06z" fill="#C4C2C0" p-id="4583"></path><path d="M367.202 163.978v19.928l264.526 153.74 17.212-9.946-281.738-163.722z" fill="#D6D4D2" p-id="4584"></path><path d="M631.728 337.644L367.202 183.906 153.934 307.042l264.526 153.72 213.268-123.118z" fill="#909293" p-id="4585"></path><path d="M562.748 487.66l-8.39-4.864 11.736 6.696 8.41 4.884-11.756-6.716z" fill="#963838" p-id="4586"></path><path d="M533.976 537.128l-8.388-4.864-0.06-19.062 8.39 4.882 0.06 19.044z" fill="#CC4848" p-id="4587"></path><path d="M562.668 468.284l-8.388-4.904 16.58-9.57 8.39 4.882-16.58 9.592z" fill="#F25A5A" p-id="4588"></path><path d="M510.228 531.496l-8.39-4.904 11.698-20.244 8.388 4.884-11.696 20.264z m40.468-70.066l-8.41-4.884 11.698-20.244 8.388 4.884-11.676 20.244z" fill="#DD4A4A" p-id="4589"></path><path d="M562.372 441.186l-8.388-4.884 11.992 6.834 8.39 4.884-11.994-6.834z" fill="#963838" p-id="4590"></path><path d="M505.344 520.802l-8.388-4.884-0.06-19.416 8.388 4.884 0.06 19.416z" fill="#CC4848" p-id="4591"></path><path d="M505.304 501.386l-8.408-4.884 16.6-9.57 8.39 4.884-16.58 9.57z m28.436-49.25l-8.408-4.884 16.896-9.748 8.408 4.864-16.896 9.768z" fill="#F25A5A" p-id="4592"></path><path d="M533.78 471.178l-8.39-4.884-0.06-19.042 8.41 4.884 0.04 19.042z" fill="#CC4848" p-id="4593"></path><path d="M510.11 485.12l-8.39-4.884 11.914-20.638 8.39 4.884-11.914 20.638z" fill="#DD4A4A" p-id="4594"></path><path d="M550.636 442.368l0.06 19.062 11.676-20.244 11.994 6.834-11.698 20.244 16.58-9.572 0.06 19.418-16.56 9.55 11.756 6.716-11.914 20.636-11.776-6.694 0.06 19.06-16.898 9.75-0.06-19.044-11.676 20.224-12.012-6.832 11.696-20.244-16.58 9.57-0.06-19.416 16.6-9.57-11.774-6.696 11.914-20.638 11.756 6.696-0.04-19.042 16.896-9.768z" fill="#C44141" p-id="4595"></path><path d="M522.044 464.482l-8.41-4.884 11.756 6.696 8.39 4.884-11.736-6.696z" fill="#963838" p-id="4596"></path><path d="M161.38 382.64l-12.644-7.284-0.866 306.176 12.68-7.326 0.828-291.564z" fill="#C4C2C0" p-id="4597"></path><path d="M160.552 674.206l-12.682 7.326 56.32 32.53 0.06-14.63-43.7-25.226z" fill="#FFFFFF" p-id="4598"></path><path d="M161.38 382.64l-0.828 291.566 43.696 25.226 0.828-291.564-43.698-25.226z" fill="#909293" p-id="4599"></path><path d="M248.95 433.212l-12.642-7.288-0.866 306.176 12.68-7.326 0.828-291.562z" fill="#C4C2C0" p-id="4600"></path><path d="M248.124 724.776l-12.682 7.324 56.32 32.532 0.06-14.63-43.7-25.226z" fill="#FFFFFF" p-id="4601"></path><path d="M248.95 433.212l-0.826 291.564L291.82 750l0.828-291.566-43.698-25.224z" fill="#909293" p-id="4602"></path><path d="M336.54 483.76l-12.66-7.284-0.868 306.196 12.682-7.326 0.848-291.584z" fill="#C4C2C0" p-id="4603"></path><path d="M335.694 775.346l-12.68 7.324 56.34 32.512 0.038-14.612-43.698-25.224z" fill="#FFFFFF" p-id="4604"></path><path d="M336.54 483.76l-0.846 291.586 43.718 25.206 0.806-291.564-43.676-25.226z" fill="#909293" p-id="4605"></path><path d="M426.398 723.652l-7.956-4.626-0.296-103.878 7.956 4.628 0.296 103.876z" fill="#D6D4D2" p-id="4606"></path><path d="M426.102 619.776l-7.956-4.628 259.132-149.602 7.954 4.628-259.13 149.602z" fill="#E9E8E6" p-id="4607"></path><path d="M685.234 470.174l0.294 103.876L426.4 723.654l-0.296-103.878 259.132-149.602z" fill="#B2B0AF" p-id="4608"></path><path d="M438.882 286.72c-35.82-20.676-93.892-20.676-129.476 0l0.08-27.826c35.582-20.676 93.654-20.676 129.476 0 8.96 5.16 15.674 11.146 20.184 17.526l-0.08 27.846c-4.508-6.38-11.224-12.366-20.184-17.526v-0.02z" fill="#E9E8E6" p-id="4609"></path><path d="M367.182 278.272l0.08-27.844a138.606 138.606 0 0 1 6.892-0.16l-0.06 27.826c-2.298 0.01-4.596 0.074-6.892 0.198l-0.02-0.02z" fill="#0074D1" p-id="4610"></path><path d="M367.182 278.272a135.72 135.72 0 0 0-8.31 0.67l0.08-27.846a144.668 144.668 0 0 1 8.31-0.668l-0.08 27.844z" fill="#0074D1" p-id="4611"></path><path d="M290.048 303.38l0.08-27.826c4.41-6.064 10.868-11.736 19.356-16.66 0 9.256-0.04 18.55-0.08 27.826-8.486 4.942-14.944 10.614-19.356 16.66z" fill="#E9E8E6" p-id="4612"></path><path d="M290.048 303.38l-0.63 0.886 0.08-27.846 0.628-0.866-0.078 25.266v2.56z" fill="#E9E8E6" p-id="4613"></path><path d="M286.188 309.8l0.08-27.826c0.904-1.89 1.968-3.74 3.228-5.554 0 9.276-0.04 18.552-0.08 27.846-1.22 1.756-2.3 3.606-3.228 5.534z" fill="#E9E8E6" p-id="4614"></path><path d="M286.188 309.8a35.554 35.554 0 0 0-1.732 4.292l0.08-27.844c0.47-1.44 1.04-2.876 1.732-4.274l-0.04 15.832-0.02 6.006v4.59c-0.02 0.412 0.08 0.984-0.02 1.398z" fill="#E9E8E6" p-id="4615"></path><path d="M284.456 314.092a31.862 31.862 0 0 0-1.616 9.866l0.08-27.844c0-3.29 0.55-6.598 1.614-9.846l-0.04 13.9v7.228l-0.02 3.448c0 0.984 0.14 2.284 0 3.248h-0.02z" fill="#E9E8E6" p-id="4616"></path><path d="M317.834 291.604c-15.38 8.94-23.08 20.656-23.12 32.394l0.08-27.846c0.04-11.736 7.74-23.452 23.12-32.394 11.618-6.754 25.972-10.968 41.038-12.64l-0.08 27.824c-15.064 1.694-29.44 5.908-41.04 12.66z" fill="#0074D1" p-id="4617"></path><path d="M465.86 324.49a34.776 34.776 0 0 0-6.792-20.224c0-9.276 0.04-18.55 0.078-27.846 4.53 6.48 6.814 13.352 6.794 20.224l-0.08 27.846z" fill="#E9E8E6" p-id="4618"></path><path d="M430.514 291.604c-15.598-9-36.038-13.51-56.42-13.51l0.06-27.804c20.4 0 40.822 4.49 56.42 13.488 15.674 9.06 23.51 20.972 23.472 32.866l-0.08 27.846c0.04-11.894-7.798-23.828-23.472-32.886h0.02z" fill="#0074D1" p-id="4619"></path><path d="M454.066 296.626l-0.08 27.824c-0.04 11.756-7.74 23.474-23.12 32.414-30.954 18-81.504 18-112.66 0-15.692-9.06-23.53-20.972-23.49-32.866l0.078-27.826c-0.04 11.874 7.798 23.788 23.492 32.848 31.154 17.998 81.704 17.998 112.66 0 15.38-8.94 23.08-20.66 23.12-32.394z" fill="#E9E8E6" p-id="4620"></path><path d="M438.94 258.894c35.84 20.678 36.02 54.312 0.434 74.99-35.584 20.676-93.656 20.676-129.476 0-35.82-20.678-35.998-54.312-0.414-74.99 35.564-20.676 93.656-20.676 129.478 0h-0.02z m-120.654 70.126c31.154 17.998 81.704 17.998 112.66 0 30.956-17.98 30.8-47.262-0.354-65.26-31.174-18-81.724-18-112.68 0-30.976 17.998-30.8 47.26 0.374 65.26z" fill="#0074D1" p-id="4621"></path><path d="M374.371655 342.584403a79.676 46.158 0.17 1 0 0.273907-92.315594 79.676 46.158 0.17 1 0-0.273907 92.315594Z" fill="#E9E8E6" p-id="4622"></path><path d="M477.854 296.684l-0.08 15.676c-0.04 15.24-10.042 30.464-30.05 42.08-40.25 23.396-105.748 23.396-146.274 0-20.38-11.774-30.582-27.232-30.524-42.652l0.06-15.694c-0.04 15.44 10.16 30.896 30.542 42.654 40.528 23.394 106.024 23.414 146.276 0 20.006-11.62 30.01-26.82 30.05-42.064z" fill="#C4C2C0" p-id="4623"></path><path d="M447.33 254.03c40.526 23.396 40.744 61.322 0.474 84.718-40.252 23.414-105.748 23.394-146.276 0-40.526-23.396-40.742-61.322-0.472-84.718 40.252-23.394 105.748-23.394 146.274 0z m-137.432 79.854c35.84 20.676 93.892 20.676 129.476 0 35.584-20.678 35.406-54.312-0.412-74.99-35.82-20.676-93.914-20.676-129.478 0-35.584 20.678-35.386 54.312 0.414 74.99z" fill="#E9E8E6" p-id="4624"></path><path d="M326.538 295.188l49.82 28.948 11.6-6.696-20.42-11.874 22.764-13.136 20.42 11.856 11.62-6.696-49.822-28.948-11.62 6.696 19.654 11.42-22.784 13.136-19.634-11.42-11.6 6.714z" fill="#434240" p-id="4625"></path><path d="M584.192 681.748v101.73l13.076 7.542v-116.814l-13.076 7.54z" fill="#909293" p-id="4626"></path><path d="M499.948 832.1l0.04 15.082 97.28-56.16-13.076-7.544-84.244 48.62z" fill="#81D672" p-id="4627"></path><path d="M584.192 681.768v101.69l-18.196 10.516-3.544 2.048-36.706 21.17-3.546 2.066-22.252 12.84-0.158-65.476-0.02-4.076-0.078-32 22.508-12.998 3.546-2.048 36.706-21.188 3.544-2.028 18.196-10.516z" fill="#E9E8E6" p-id="4628"></path><path d="M584.192 713.788v4.096l-18.196 10.514v65.576l-3.544 2.048v-65.576l-36.706 21.17v65.576l-3.546 2.066v-65.574l-22.41 12.938-0.02-4.076 22.43-12.96v-32.038l3.546-2.048v32.04l36.706-21.19v-32.04l3.544-2.026v32.02l18.196-10.516z" fill="#B2B0AF" p-id="4629"></path><path d="M386.088 456.114a46.248 46.248 0 0 0-18.768 11.716c-5.316 5.474-9.372 11.874-11.716 18.904-0.946 2.364-3.9 2.364-4.844 0a47.3 47.3 0 0 0-30.484-30.62c-2.344-0.63-2.344-3.742 0-4.53a51.74 51.74 0 0 0 19.08-11.716c5.004-5.16 9.06-11.738 11.404-18.768 0.944-2.66 3.9-2.66 4.844 0 2.344 7.03 6.4 13.588 11.716 18.768 5.16 5.316 11.56 9.216 18.768 11.716 2.342 0.788 2.342 3.9 0 4.53z" fill="#FFFFFF" p-id="4630"></path></svg>